<svg width="39" height="27" viewBox="0 0 39 27" fill="none" xmlns="http://www.w3.org/2000/svg">
<path d="M2.61914 12V3.27273H4.98846V10.0909H8.51687V12H2.61914ZM2.10984 27V18.2727H4.47916V21.6818H7.61553V18.2727H9.98484V27H7.61553V23.5909H4.47916V27H2.10984Z" fill="#600FC8"/>
<path d="M17.5893 7.63636C17.5893 8.60795 17.4004 9.42756 17.0226 10.0952C16.6447 10.7599 16.1348 11.2642 15.4927 11.608C14.8507 11.9489 14.1348 12.1193 13.345 12.1193C12.5495 12.1193 11.8308 11.9474 11.1887 11.6037C10.5495 11.2571 10.041 10.7514 9.66317 10.0866C9.28817 9.41903 9.10067 8.60227 9.10067 7.63636C9.10067 6.66477 9.28817 5.84659 9.66317 5.18182C10.041 4.5142 10.5495 4.00994 11.1887 3.66903C11.8308 3.32528 12.5495 3.15341 13.345 3.15341C14.1348 3.15341 14.8507 3.32528 15.4927 3.66903C16.1348 4.00994 16.6447 4.5142 17.0226 5.18182C17.4004 5.84659 17.5893 6.66477 17.5893 7.63636ZM15.1518 7.63636C15.1518 7.11364 15.0822 6.6733 14.943 6.31534C14.8066 5.95455 14.6035 5.68182 14.3336 5.49716C14.0666 5.30966 13.737 5.21591 13.345 5.21591C12.9529 5.21591 12.622 5.30966 12.3521 5.49716C12.085 5.68182 11.8819 5.95455 11.7427 6.31534C11.6064 6.6733 11.5382 7.11364 11.5382 7.63636C11.5382 8.15909 11.6064 8.60085 11.7427 8.96165C11.8819 9.3196 12.085 9.59233 12.3521 9.77983C12.622 9.96449 12.9529 10.0568 13.345 10.0568C13.737 10.0568 14.0666 9.96449 14.3336 9.77983C14.6035 9.59233 14.8066 9.3196 14.943 8.96165C15.0822 8.60085 15.1518 8.15909 15.1518 7.63636Z" fill="#C7C4C4"/>
<path d="M24.3532 6.15341C24.3162 6.00284 24.258 5.87074 24.1784 5.7571C24.0989 5.64062 23.9995 5.54261 23.8801 5.46307C23.7637 5.38068 23.6273 5.3196 23.4711 5.27983C23.3176 5.23722 23.1486 5.21591 22.964 5.21591C22.5662 5.21591 22.2267 5.31108 21.9455 5.50142C21.6671 5.69176 21.454 5.96591 21.3063 6.32386C21.1614 6.68182 21.089 7.11364 21.089 7.61932C21.089 8.13068 21.1586 8.56818 21.2978 8.93182C21.437 9.29545 21.6444 9.57386 21.9199 9.76705C22.1955 9.96023 22.5378 10.0568 22.9469 10.0568C23.3077 10.0568 23.6074 10.0043 23.8461 9.89915C24.0875 9.79403 24.2679 9.64489 24.3873 9.4517C24.5066 9.25852 24.5662 9.03125 24.5662 8.76989L24.9753 8.8125H22.981V7.125H26.8503V8.33523C26.8503 9.13068 26.6813 9.81108 26.3432 10.3764C26.008 10.9389 25.5449 11.3707 24.954 11.6719C24.3659 11.9702 23.6912 12.1193 22.9299 12.1193C22.0804 12.1193 21.3347 11.9389 20.6926 11.5781C20.0506 11.2173 19.5492 10.7031 19.1884 10.0355C18.8304 9.3679 18.6515 8.57386 18.6515 7.65341C18.6515 6.93182 18.7608 6.29261 18.9796 5.7358C19.2012 5.17898 19.508 4.70881 19.9 4.32528C20.2921 3.93892 20.7452 3.64773 21.2594 3.4517C21.7736 3.25284 22.3248 3.15341 22.9128 3.15341C23.4299 3.15341 23.91 3.22727 24.3532 3.375C24.7992 3.51989 25.1926 3.72727 25.5336 3.99716C25.8773 4.2642 26.1543 4.58097 26.3645 4.94744C26.5748 5.31392 26.7026 5.71591 26.748 6.15341H24.3532ZM36.4096 7.63636C36.4096 8.60795 36.2207 9.42756 35.8429 10.0952C35.465 10.7599 34.9551 11.2642 34.313 11.608C33.671 11.9489 32.9551 12.1193 32.1653 12.1193C31.3699 12.1193 30.6511 11.9474 30.0091 11.6037C29.3699 11.2571 28.8613 10.7514 28.4835 10.0866C28.1085 9.41903 27.921 8.60227 27.921 7.63636C27.921 6.66477 28.1085 5.84659 28.4835 5.18182C28.8613 4.5142 29.3699 4.00994 30.0091 3.66903C30.6511 3.32528 31.3699 3.15341 32.1653 3.15341C32.9551 3.15341 33.671 3.32528 34.313 3.66903C34.9551 4.00994 35.465 4.5142 35.8429 5.18182C36.2207 5.84659 36.4096 6.66477 36.4096 7.63636ZM33.9721 7.63636C33.9721 7.11364 33.9025 6.6733 33.7633 6.31534C33.627 5.95455 33.4238 5.68182 33.1539 5.49716C32.8869 5.30966 32.5574 5.21591 32.1653 5.21591C31.7733 5.21591 31.4423 5.30966 31.1724 5.49716C30.9054 5.68182 30.7022 5.95455 30.563 6.31534C30.4267 6.6733 30.3585 7.11364 30.3585 7.63636C30.3585 8.15909 30.4267 8.60085 30.563 8.96165C30.7022 9.3196 30.9054 9.59233 31.1724 9.77983C31.4423 9.96449 31.7733 10.0568 32.1653 10.0568C32.5574 10.0568 32.8869 9.96449 33.1539 9.77983C33.4238 9.59233 33.627 9.3196 33.7633 8.96165C33.9025 8.60085 33.9721 8.15909 33.9721 7.63636ZM12.4298 27V18.2727H18.7196V20.1818H14.7992V21.6818H18.3958V23.5909H14.7992V25.0909H18.7026V27H12.4298ZM21.2147 27V18.2727H24.9817C25.6295 18.2727 26.1962 18.3906 26.682 18.6264C27.1678 18.8622 27.5457 19.2017 27.8155 19.6449C28.0854 20.0881 28.2204 20.6193 28.2204 21.2386C28.2204 21.8636 28.0812 22.3906 27.8028 22.8196C27.5272 23.2486 27.1394 23.5724 26.6394 23.7912C26.1422 24.0099 25.5613 24.1193 24.8965 24.1193H22.6465V22.2784H24.4192C24.6976 22.2784 24.9349 22.2443 25.1309 22.1761C25.3297 22.1051 25.4817 21.9929 25.5868 21.8395C25.6948 21.6861 25.7488 21.4858 25.7488 21.2386C25.7488 20.9886 25.6948 20.7855 25.5868 20.6293C25.4817 20.4702 25.3297 20.3537 25.1309 20.2798C24.9349 20.2031 24.6976 20.1648 24.4192 20.1648H23.584V27H21.2147ZM26.3283 22.9943L28.5101 27H25.9363L23.8056 22.9943H26.3283ZM30.5503 27V18.2727H36.8401V20.1818H32.9196V21.6818H36.5162V23.5909H32.9196V25.0909H36.823V27H30.5503Z" fill="#C7C4C4"/>
</svg>
